<mxfile host="app.diagrams.net" agent="Mozilla/5.0 (X11; Linux x86_64) AppleWebKit/537.36 (KHTML, like Gecko) Chrome/134.0.0.0 Safari/537.36" version="27.1.3">
  <diagram name="페이지-1" id="VVqCfOVXfzy3V_eHcKEl">
    <mxGraphModel dx="1085" dy="611" grid="1" gridSize="10" guides="1" tooltips="1" connect="1" arrows="1" fold="1" page="1" pageScale="1" pageWidth="827" pageHeight="1169" background="#ffffff" math="0" shadow="0">
      <root>
        <mxCell id="0" />
        <mxCell id="1" parent="0" />
        <mxCell id="ZfewzwySDCzYrbojLsdr-8" value="" style="edgeStyle=orthogonalEdgeStyle;rounded=0;orthogonalLoop=1;jettySize=auto;html=1;" parent="1" source="4uhuHD_OqtdL1rbwjFQc-1" target="4uhuHD_OqtdL1rbwjFQc-3" edge="1">
          <mxGeometry relative="1" as="geometry" />
        </mxCell>
        <mxCell id="4uhuHD_OqtdL1rbwjFQc-1" value="Vision" style="rounded=1;whiteSpace=wrap;html=1;fillColor=#e1d5e7;strokeColor=#9673a6;" parent="1" vertex="1">
          <mxGeometry x="130" y="64" width="90" height="30" as="geometry" />
        </mxCell>
        <mxCell id="ZfewzwySDCzYrbojLsdr-11" style="edgeStyle=orthogonalEdgeStyle;rounded=0;orthogonalLoop=1;jettySize=auto;html=1;entryX=0.5;entryY=0;entryDx=0;entryDy=0;" parent="1" source="4uhuHD_OqtdL1rbwjFQc-2" target="4uhuHD_OqtdL1rbwjFQc-4" edge="1">
          <mxGeometry relative="1" as="geometry" />
        </mxCell>
        <mxCell id="4uhuHD_OqtdL1rbwjFQc-2" value="Robot Control" style="rounded=1;whiteSpace=wrap;html=1;fillColor=#e1d5e7;strokeColor=#9673a6;" parent="1" vertex="1">
          <mxGeometry x="300" y="64" width="130" height="30" as="geometry" />
        </mxCell>
        <mxCell id="ZfewzwySDCzYrbojLsdr-15" style="edgeStyle=orthogonalEdgeStyle;rounded=0;orthogonalLoop=1;jettySize=auto;html=1;" parent="1" source="4uhuHD_OqtdL1rbwjFQc-3" edge="1">
          <mxGeometry relative="1" as="geometry">
            <mxPoint x="350" y="203" as="targetPoint" />
          </mxGeometry>
        </mxCell>
        <mxCell id="ZfewzwySDCzYrbojLsdr-16" value="/qr_info&lt;div&gt;topic&lt;/div&gt;" style="edgeLabel;html=1;align=center;verticalAlign=middle;resizable=0;points=[];" parent="ZfewzwySDCzYrbojLsdr-15" vertex="1" connectable="0">
          <mxGeometry x="0.1172" relative="1" as="geometry">
            <mxPoint x="-22" as="offset" />
          </mxGeometry>
        </mxCell>
        <mxCell id="ZfewzwySDCzYrbojLsdr-26" style="edgeStyle=orthogonalEdgeStyle;rounded=0;orthogonalLoop=1;jettySize=auto;html=1;entryX=0.5;entryY=0;entryDx=0;entryDy=0;" parent="1" source="4uhuHD_OqtdL1rbwjFQc-3" target="ZfewzwySDCzYrbojLsdr-25" edge="1">
          <mxGeometry relative="1" as="geometry" />
        </mxCell>
        <mxCell id="4uhuHD_OqtdL1rbwjFQc-3" value="처방전 인식&lt;div&gt;detect_qr()&lt;/div&gt;" style="rounded=1;whiteSpace=wrap;html=1;" parent="1" vertex="1">
          <mxGeometry x="130" y="182" width="90" height="42" as="geometry" />
        </mxCell>
        <mxCell id="ZfewzwySDCzYrbojLsdr-12" value="/robot_state&lt;div&gt;topic&lt;/div&gt;&lt;div&gt;&#39;check_qr&#39;&lt;/div&gt;" style="edgeStyle=orthogonalEdgeStyle;rounded=0;orthogonalLoop=1;jettySize=auto;html=1;" parent="1" edge="1">
          <mxGeometry x="-0.1471" relative="1" as="geometry">
            <mxPoint x="181" y="162" as="targetPoint" />
            <mxPoint x="301" y="162.0322580645161" as="sourcePoint" />
            <mxPoint as="offset" />
          </mxGeometry>
        </mxCell>
        <mxCell id="ZfewzwySDCzYrbojLsdr-18" value="" style="edgeStyle=orthogonalEdgeStyle;rounded=0;orthogonalLoop=1;jettySize=auto;html=1;" parent="1" source="4uhuHD_OqtdL1rbwjFQc-4" target="ZfewzwySDCzYrbojLsdr-17" edge="1">
          <mxGeometry relative="1" as="geometry" />
        </mxCell>
        <mxCell id="VaNRtjLqdTXlUVfQ7H0l-16" value="&lt;span style=&quot;forced-color-adjust: none; color: light-dark(rgb(0, 0, 0), rgb(237, 237, 237)); font-family: Helvetica; font-size: 11px; font-style: normal; font-variant-ligatures: normal; font-variant-caps: normal; font-weight: 400; letter-spacing: normal; orphans: 2; text-align: center; text-indent: 0px; text-transform: none; widows: 2; word-spacing: 0px; -webkit-text-stroke-width: 0px; white-space: nowrap; background-color: light-dark(rgb(255, 255, 255), rgb(18, 18, 18)); text-decoration-thickness: initial; text-decoration-style: initial; text-decoration-color: initial; float: none; display: inline !important;&quot; data-mx-given-colors=&quot;{&amp;quot;color&amp;quot;:&amp;quot;rgb(0, 0, 0)&amp;quot;,&amp;quot;background-color&amp;quot;:&amp;quot;rgb(255, 255, 255)&amp;quot;}&quot;&gt;/robot_state&lt;/span&gt;&lt;div style=&quot;forced-color-adjust: none; color: light-dark(rgb(0, 0, 0), rgb(237, 237, 237)); font-family: Helvetica; font-size: 11px; font-style: normal; font-variant-ligatures: normal; font-variant-caps: normal; font-weight: 400; letter-spacing: normal; orphans: 2; text-align: center; text-indent: 0px; text-transform: none; widows: 2; word-spacing: 0px; -webkit-text-stroke-width: 0px; white-space: nowrap; text-decoration-thickness: initial; text-decoration-style: initial; text-decoration-color: initial;&quot; data-mx-given-colors=&quot;{&amp;quot;color&amp;quot;:&amp;quot;rgb(0, 0, 0)&amp;quot;}&quot;&gt;topic&lt;/div&gt;&lt;div style=&quot;forced-color-adjust: none; color: light-dark(rgb(0, 0, 0), rgb(237, 237, 237)); font-family: Helvetica; font-size: 11px; font-style: normal; font-variant-ligatures: normal; font-variant-caps: normal; font-weight: 400; letter-spacing: normal; orphans: 2; text-align: center; text-indent: 0px; text-transform: none; widows: 2; word-spacing: 0px; -webkit-text-stroke-width: 0px; white-space: nowrap; text-decoration-thickness: initial; text-decoration-style: initial; text-decoration-color: initial;&quot; data-mx-given-colors=&quot;{&amp;quot;color&amp;quot;:&amp;quot;rgb(0, 0, 0)&amp;quot;}&quot;&gt;&#39;check_qr&#39;&lt;/div&gt;" style="edgeStyle=orthogonalEdgeStyle;rounded=0;orthogonalLoop=1;jettySize=auto;html=1;" parent="1" source="4uhuHD_OqtdL1rbwjFQc-4" edge="1">
          <mxGeometry x="-0.1701" relative="1" as="geometry">
            <mxPoint x="550" y="163" as="targetPoint" />
            <mxPoint as="offset" />
          </mxGeometry>
        </mxCell>
        <mxCell id="4uhuHD_OqtdL1rbwjFQc-4" value="처방전 QR 인식 자세&lt;div&gt;move_check_qr()&lt;/div&gt;" style="rounded=1;whiteSpace=wrap;html=1;" parent="1" vertex="1">
          <mxGeometry x="300" y="139" width="130" height="48" as="geometry" />
        </mxCell>
        <mxCell id="4uhuHD_OqtdL1rbwjFQc-9" value="" style="edgeStyle=orthogonalEdgeStyle;rounded=0;orthogonalLoop=1;jettySize=auto;html=1;" parent="1" source="4uhuHD_OqtdL1rbwjFQc-6" target="4uhuHD_OqtdL1rbwjFQc-8" edge="1">
          <mxGeometry relative="1" as="geometry" />
        </mxCell>
        <mxCell id="ZfewzwySDCzYrbojLsdr-33" value="&lt;span style=&quot;forced-color-adjust: none; color: rgb(0, 0, 0); font-family: Helvetica; font-size: 11px; font-style: normal; font-variant-ligatures: normal; font-variant-caps: normal; font-weight: 400; letter-spacing: normal; orphans: 2; text-align: center; text-indent: 0px; text-transform: none; widows: 2; word-spacing: 0px; -webkit-text-stroke-width: 0px; white-space: nowrap; background-color: rgb(255, 255, 255); text-decoration-thickness: initial; text-decoration-style: initial; text-decoration-color: initial; float: none; display: inline !important;&quot;&gt;/robot_state&lt;/span&gt;&lt;div style=&quot;forced-color-adjust: none; color: rgb(0, 0, 0); font-family: Helvetica; font-size: 11px; font-style: normal; font-variant-ligatures: normal; font-variant-caps: normal; font-weight: 400; letter-spacing: normal; orphans: 2; text-align: center; text-indent: 0px; text-transform: none; widows: 2; word-spacing: 0px; -webkit-text-stroke-width: 0px; white-space: nowrap; text-decoration-thickness: initial; text-decoration-style: initial; text-decoration-color: initial;&quot;&gt;topic&lt;/div&gt;&lt;div style=&quot;forced-color-adjust: none; color: rgb(0, 0, 0); font-family: Helvetica; font-size: 11px; font-style: normal; font-variant-ligatures: normal; font-variant-caps: normal; font-weight: 400; letter-spacing: normal; orphans: 2; text-align: center; text-indent: 0px; text-transform: none; widows: 2; word-spacing: 0px; -webkit-text-stroke-width: 0px; white-space: nowrap; text-decoration-thickness: initial; text-decoration-style: initial; text-decoration-color: initial;&quot;&gt;&#39;detect_pill&#39;&lt;/div&gt;" style="edgeStyle=orthogonalEdgeStyle;rounded=0;orthogonalLoop=1;jettySize=auto;html=1;" parent="1" source="4uhuHD_OqtdL1rbwjFQc-6" edge="1">
          <mxGeometry x="-0.1701" relative="1" as="geometry">
            <mxPoint x="180" y="410" as="targetPoint" />
            <mxPoint as="offset" />
          </mxGeometry>
        </mxCell>
        <mxCell id="4uhuHD_OqtdL1rbwjFQc-6" value="서랍 위에서&lt;div&gt;약을 탐지하는 자세&lt;/div&gt;&lt;div&gt;open_drawer()&lt;/div&gt;" style="rounded=1;whiteSpace=wrap;html=1;" parent="1" vertex="1">
          <mxGeometry x="300" y="381" width="130" height="58" as="geometry" />
        </mxCell>
        <mxCell id="ZfewzwySDCzYrbojLsdr-38" value="&lt;span style=&quot;forced-color-adjust: none; color: rgb(0, 0, 0); font-family: Helvetica; font-size: 11px; font-style: normal; font-variant-ligatures: normal; font-variant-caps: normal; font-weight: 400; letter-spacing: normal; orphans: 2; text-align: center; text-indent: 0px; text-transform: none; widows: 2; word-spacing: 0px; -webkit-text-stroke-width: 0px; white-space: nowrap; background-color: rgb(255, 255, 255); text-decoration-thickness: initial; text-decoration-style: initial; text-decoration-color: initial; float: none; display: inline !important;&quot;&gt;/robot_state&lt;/span&gt;&lt;div style=&quot;forced-color-adjust: none; color: rgb(0, 0, 0); font-family: Helvetica; font-size: 11px; font-style: normal; font-variant-ligatures: normal; font-variant-caps: normal; font-weight: 400; letter-spacing: normal; orphans: 2; text-align: center; text-indent: 0px; text-transform: none; widows: 2; word-spacing: 0px; -webkit-text-stroke-width: 0px; white-space: nowrap; text-decoration-thickness: initial; text-decoration-style: initial; text-decoration-color: initial;&quot;&gt;topic&lt;/div&gt;&lt;div style=&quot;forced-color-adjust: none; color: rgb(0, 0, 0); font-family: Helvetica; font-size: 11px; font-style: normal; font-variant-ligatures: normal; font-variant-caps: normal; font-weight: 400; letter-spacing: normal; orphans: 2; text-align: center; text-indent: 0px; text-transform: none; widows: 2; word-spacing: 0px; -webkit-text-stroke-width: 0px; white-space: nowrap; text-decoration-thickness: initial; text-decoration-style: initial; text-decoration-color: initial;&quot;&gt;&#39;pick_pill&#39;&lt;/div&gt;" style="edgeStyle=orthogonalEdgeStyle;rounded=0;orthogonalLoop=1;jettySize=auto;html=1;" parent="1" source="4uhuHD_OqtdL1rbwjFQc-8" edge="1">
          <mxGeometry x="-0.1701" relative="1" as="geometry">
            <mxPoint x="180.0000000000001" y="539" as="targetPoint" />
            <mxPoint as="offset" />
          </mxGeometry>
        </mxCell>
        <mxCell id="ZfewzwySDCzYrbojLsdr-40" style="edgeStyle=orthogonalEdgeStyle;rounded=0;orthogonalLoop=1;jettySize=auto;html=1;entryX=0.5;entryY=0;entryDx=0;entryDy=0;" parent="1" source="4uhuHD_OqtdL1rbwjFQc-8" target="4uhuHD_OqtdL1rbwjFQc-15" edge="1">
          <mxGeometry relative="1" as="geometry" />
        </mxCell>
        <mxCell id="4uhuHD_OqtdL1rbwjFQc-8" value="&lt;span style=&quot;font-size: 11px; text-wrap-mode: nowrap; background-color: rgb(255, 255, 255);&quot;&gt;/pill_info 약 위치로 &lt;br&gt;이동, 각도 수정 후 pick&lt;/span&gt;&lt;div&gt;&lt;span style=&quot;font-size: 11px; text-wrap-mode: nowrap; background-color: rgb(255, 255, 255);&quot;&gt;pick_pill()&lt;/span&gt;&lt;/div&gt;" style="rounded=1;whiteSpace=wrap;html=1;" parent="1" vertex="1">
          <mxGeometry x="300" y="509" width="130" height="60" as="geometry" />
        </mxCell>
        <mxCell id="ZfewzwySDCzYrbojLsdr-51" style="edgeStyle=orthogonalEdgeStyle;rounded=0;orthogonalLoop=1;jettySize=auto;html=1;entryX=1;entryY=0.5;entryDx=0;entryDy=0;" parent="1" source="4uhuHD_OqtdL1rbwjFQc-15" target="4uhuHD_OqtdL1rbwjFQc-6" edge="1">
          <mxGeometry relative="1" as="geometry">
            <Array as="points">
              <mxPoint x="460" y="606" />
              <mxPoint x="460" y="410" />
            </Array>
          </mxGeometry>
        </mxCell>
        <mxCell id="ZfewzwySDCzYrbojLsdr-52" value="&lt;div&gt;/qr_info의 약이&lt;/div&gt;여러개인 경우&lt;div&gt;loop&lt;/div&gt;" style="edgeLabel;html=1;align=center;verticalAlign=middle;resizable=0;points=[];" parent="ZfewzwySDCzYrbojLsdr-51" vertex="1" connectable="0">
          <mxGeometry x="0.1182" y="-2" relative="1" as="geometry">
            <mxPoint as="offset" />
          </mxGeometry>
        </mxCell>
        <mxCell id="VaNRtjLqdTXlUVfQ7H0l-12" value="" style="edgeStyle=orthogonalEdgeStyle;rounded=0;orthogonalLoop=1;jettySize=auto;html=1;" parent="1" source="4uhuHD_OqtdL1rbwjFQc-15" target="VaNRtjLqdTXlUVfQ7H0l-11" edge="1">
          <mxGeometry relative="1" as="geometry" />
        </mxCell>
        <mxCell id="4uhuHD_OqtdL1rbwjFQc-15" value="약 봉투에 담기&lt;div&gt;place_pill()&lt;/div&gt;" style="rounded=1;whiteSpace=wrap;html=1;" parent="1" vertex="1">
          <mxGeometry x="300" y="585" width="130" height="42" as="geometry" />
        </mxCell>
        <mxCell id="4uhuHD_OqtdL1rbwjFQc-18" value="약 처방" style="rounded=1;whiteSpace=wrap;html=1;fillColor=#dae8fc;strokeColor=#6c8ebf;" parent="1" vertex="1">
          <mxGeometry x="20" y="20" width="780" height="30" as="geometry" />
        </mxCell>
        <mxCell id="NTEcIHUlj5o2l75i7hv5-12" style="edgeStyle=orthogonalEdgeStyle;rounded=0;orthogonalLoop=1;jettySize=auto;html=1;entryX=0.5;entryY=0;entryDx=0;entryDy=0;" parent="1" source="4uhuHD_OqtdL1rbwjFQc-22" target="4uhuHD_OqtdL1rbwjFQc-32" edge="1">
          <mxGeometry relative="1" as="geometry" />
        </mxCell>
        <mxCell id="4uhuHD_OqtdL1rbwjFQc-22" value="Vision" style="rounded=1;whiteSpace=wrap;html=1;fillColor=#e1d5e7;strokeColor=#9673a6;" parent="1" vertex="1">
          <mxGeometry x="25" y="810" width="90" height="30" as="geometry" />
        </mxCell>
        <mxCell id="4uhuHD_OqtdL1rbwjFQc-23" value="Robot Control" style="rounded=1;whiteSpace=wrap;html=1;fillColor=#e1d5e7;strokeColor=#9673a6;" parent="1" vertex="1">
          <mxGeometry x="237" y="810" width="126" height="30" as="geometry" />
        </mxCell>
        <mxCell id="4Y7MrG0Yg-tEDEvkfqsa-24" style="edgeStyle=orthogonalEdgeStyle;rounded=0;orthogonalLoop=1;jettySize=auto;html=1;entryX=0.5;entryY=0;entryDx=0;entryDy=0;" edge="1" parent="1" source="4uhuHD_OqtdL1rbwjFQc-24" target="4uhuHD_OqtdL1rbwjFQc-26">
          <mxGeometry relative="1" as="geometry" />
        </mxCell>
        <mxCell id="4uhuHD_OqtdL1rbwjFQc-24" value="Voice" style="rounded=1;whiteSpace=wrap;html=1;fillColor=#e1d5e7;strokeColor=#9673a6;" parent="1" vertex="1">
          <mxGeometry x="465" y="810" width="110" height="30" as="geometry" />
        </mxCell>
        <mxCell id="NTEcIHUlj5o2l75i7hv5-8" style="edgeStyle=orthogonalEdgeStyle;rounded=0;orthogonalLoop=1;jettySize=auto;html=1;entryX=0.5;entryY=0;entryDx=0;entryDy=0;" parent="1" source="4uhuHD_OqtdL1rbwjFQc-26" target="NTEcIHUlj5o2l75i7hv5-6" edge="1">
          <mxGeometry relative="1" as="geometry" />
        </mxCell>
        <mxCell id="4Y7MrG0Yg-tEDEvkfqsa-23" value="&lt;span style=&quot;color: rgb(0, 0, 0); font-family: Helvetica; font-size: 11px; font-style: normal; font-variant-ligatures: normal; font-variant-caps: normal; font-weight: 400; letter-spacing: normal; orphans: 2; text-align: center; text-indent: 0px; text-transform: none; widows: 2; word-spacing: 0px; -webkit-text-stroke-width: 0px; white-space: nowrap; background-color: rgb(255, 255, 255); text-decoration-thickness: initial; text-decoration-style: initial; text-decoration-color: initial; display: inline !important; float: none;&quot;&gt;/medicine&lt;/span&gt;&lt;div style=&quot;forced-color-adjust: none; color: rgb(0, 0, 0); font-family: Helvetica; font-size: 11px; font-style: normal; font-variant-ligatures: normal; font-variant-caps: normal; font-weight: 400; letter-spacing: normal; orphans: 2; text-align: center; text-indent: 0px; text-transform: none; widows: 2; word-spacing: 0px; -webkit-text-stroke-width: 0px; white-space: nowrap; text-decoration-thickness: initial; text-decoration-style: initial; text-decoration-color: initial;&quot;&gt;topic&lt;/div&gt;" style="edgeStyle=orthogonalEdgeStyle;rounded=0;orthogonalLoop=1;jettySize=auto;html=1;entryX=1;entryY=0.5;entryDx=0;entryDy=0;" edge="1" parent="1" source="4uhuHD_OqtdL1rbwjFQc-26" target="4Y7MrG0Yg-tEDEvkfqsa-17">
          <mxGeometry relative="1" as="geometry" />
        </mxCell>
        <mxCell id="4uhuHD_OqtdL1rbwjFQc-26" value="의약품 약 요청" style="rounded=1;whiteSpace=wrap;html=1;" parent="1" vertex="1">
          <mxGeometry x="465" y="899" width="110" height="30" as="geometry" />
        </mxCell>
        <mxCell id="4uhuHD_OqtdL1rbwjFQc-28" value="일반의약품 구매" style="rounded=1;whiteSpace=wrap;html=1;fillColor=#dae8fc;strokeColor=#6c8ebf;" parent="1" vertex="1">
          <mxGeometry x="25" y="770" width="775" height="30" as="geometry" />
        </mxCell>
        <mxCell id="4Y7MrG0Yg-tEDEvkfqsa-39" style="edgeStyle=orthogonalEdgeStyle;rounded=0;orthogonalLoop=1;jettySize=auto;html=1;entryX=0.5;entryY=0;entryDx=0;entryDy=0;" edge="1" parent="1" source="4uhuHD_OqtdL1rbwjFQc-29" target="4uhuHD_OqtdL1rbwjFQc-37">
          <mxGeometry relative="1" as="geometry" />
        </mxCell>
        <mxCell id="4Y7MrG0Yg-tEDEvkfqsa-52" style="edgeStyle=orthogonalEdgeStyle;rounded=0;orthogonalLoop=1;jettySize=auto;html=1;" edge="1" parent="1">
          <mxGeometry relative="1" as="geometry">
            <mxPoint x="70" y="971" as="targetPoint" />
            <mxPoint x="237" y="971" as="sourcePoint" />
          </mxGeometry>
        </mxCell>
        <mxCell id="4Y7MrG0Yg-tEDEvkfqsa-53" value="&lt;span style=&quot;color: rgb(0, 0, 0); background-color: rgb(255, 255, 255); float: none; display: inline !important;&quot;&gt;/robot_state&lt;/span&gt;&lt;div style=&quot;color: rgb(0, 0, 0);&quot;&gt;topic&lt;/div&gt;&lt;div style=&quot;color: rgb(0, 0, 0);&quot;&gt;&#39;shelf state&#39;&lt;/div&gt;" style="edgeLabel;html=1;align=center;verticalAlign=middle;resizable=0;points=[];" vertex="1" connectable="0" parent="4Y7MrG0Yg-tEDEvkfqsa-52">
          <mxGeometry x="-0.3225" y="2" relative="1" as="geometry">
            <mxPoint as="offset" />
          </mxGeometry>
        </mxCell>
        <mxCell id="4uhuHD_OqtdL1rbwjFQc-29" value="선반 바라보는 자세" style="rounded=1;whiteSpace=wrap;html=1;" parent="1" vertex="1">
          <mxGeometry x="237" y="960" width="123" height="30" as="geometry" />
        </mxCell>
        <mxCell id="4Y7MrG0Yg-tEDEvkfqsa-51" value="&lt;div&gt;/medicine_loc&lt;br&gt;&lt;div style=&quot;forced-color-adjust: none; color: rgb(0, 0, 0); font-family: Helvetica; font-size: 11px; font-style: normal; font-variant-ligatures: normal; font-variant-caps: normal; font-weight: 400; letter-spacing: normal; orphans: 2; text-align: center; text-indent: 0px; text-transform: none; widows: 2; word-spacing: 0px; -webkit-text-stroke-width: 0px; white-space: nowrap; text-decoration-thickness: initial; text-decoration-style: initial; text-decoration-color: initial;&quot;&gt;Topic&lt;/div&gt;&lt;/div&gt;" style="edgeStyle=orthogonalEdgeStyle;rounded=0;orthogonalLoop=1;jettySize=auto;html=1;" edge="1" parent="1">
          <mxGeometry x="-0.3732" relative="1" as="geometry">
            <mxPoint x="290" y="1013" as="targetPoint" />
            <mxPoint x="115" y="1013" as="sourcePoint" />
            <mxPoint as="offset" />
          </mxGeometry>
        </mxCell>
        <mxCell id="4uhuHD_OqtdL1rbwjFQc-32" value="일반의약품&lt;div&gt;객체 탐지&lt;/div&gt;" style="rounded=1;whiteSpace=wrap;html=1;" parent="1" vertex="1">
          <mxGeometry x="25" y="991" width="90" height="40" as="geometry" />
        </mxCell>
        <mxCell id="4Y7MrG0Yg-tEDEvkfqsa-34" value="&lt;span style=&quot;forced-color-adjust: none; color: light-dark(rgb(0, 0, 0), rgb(237, 237, 237)); font-family: Helvetica; font-size: 11px; font-style: normal; font-variant-ligatures: normal; font-variant-caps: normal; font-weight: 400; letter-spacing: normal; orphans: 2; text-align: center; text-indent: 0px; text-transform: none; widows: 2; word-spacing: 0px; -webkit-text-stroke-width: 0px; white-space: nowrap; background-color: light-dark(rgb(255, 255, 255), rgb(18, 18, 18)); text-decoration-thickness: initial; text-decoration-style: initial; text-decoration-color: initial; float: none; display: inline !important;&quot; data-mx-given-colors=&quot;{&amp;quot;color&amp;quot;:&amp;quot;rgb(0, 0, 0)&amp;quot;,&amp;quot;background-color&amp;quot;:&amp;quot;rgb(255, 255, 255)&amp;quot;}&quot;&gt;/task_state&lt;/span&gt;&lt;div style=&quot;forced-color-adjust: none; color: light-dark(rgb(0, 0, 0), rgb(237, 237, 237)); font-family: Helvetica; font-size: 11px; font-style: normal; font-variant-ligatures: normal; font-variant-caps: normal; font-weight: 400; letter-spacing: normal; orphans: 2; text-align: center; text-indent: 0px; text-transform: none; widows: 2; word-spacing: 0px; -webkit-text-stroke-width: 0px; white-space: nowrap; text-decoration-thickness: initial; text-decoration-style: initial; text-decoration-color: initial;&quot; data-mx-given-colors=&quot;{&amp;quot;color&amp;quot;:&amp;quot;rgb(0, 0, 0)&amp;quot;}&quot;&gt;topic&lt;/div&gt;" style="edgeStyle=orthogonalEdgeStyle;rounded=0;orthogonalLoop=1;jettySize=auto;html=1;" edge="1" parent="1" source="4uhuHD_OqtdL1rbwjFQc-37">
          <mxGeometry relative="1" as="geometry">
            <mxPoint x="520" y="1044" as="targetPoint" />
          </mxGeometry>
        </mxCell>
        <mxCell id="4Y7MrG0Yg-tEDEvkfqsa-55" value="&lt;span style=&quot;forced-color-adjust: none; color: rgb(0, 0, 0); font-family: Helvetica; font-size: 11px; font-style: normal; font-variant-ligatures: normal; font-variant-caps: normal; font-weight: 400; letter-spacing: normal; orphans: 2; text-align: center; text-indent: 0px; text-transform: none; widows: 2; word-spacing: 0px; -webkit-text-stroke-width: 0px; white-space: nowrap; background-color: rgb(255, 255, 255); text-decoration-thickness: initial; text-decoration-style: initial; text-decoration-color: initial; float: none; display: inline !important;&quot;&gt;/robot_state&lt;/span&gt;&lt;div style=&quot;forced-color-adjust: none; color: rgb(0, 0, 0); font-family: Helvetica; font-size: 11px; font-style: normal; font-variant-ligatures: normal; font-variant-caps: normal; font-weight: 400; letter-spacing: normal; orphans: 2; text-align: center; text-indent: 0px; text-transform: none; widows: 2; word-spacing: 0px; -webkit-text-stroke-width: 0px; white-space: nowrap; text-decoration-thickness: initial; text-decoration-style: initial; text-decoration-color: initial;&quot;&gt;topic&lt;/div&gt;&lt;div style=&quot;forced-color-adjust: none; color: rgb(0, 0, 0); font-family: Helvetica; font-size: 11px; font-style: normal; font-variant-ligatures: normal; font-variant-caps: normal; font-weight: 400; letter-spacing: normal; orphans: 2; text-align: center; text-indent: 0px; text-transform: none; widows: 2; word-spacing: 0px; -webkit-text-stroke-width: 0px; white-space: nowrap; text-decoration-thickness: initial; text-decoration-style: initial; text-decoration-color: initial;&quot;&gt;&#39;pick_medicine&#39;&lt;/div&gt;" style="edgeStyle=orthogonalEdgeStyle;rounded=0;orthogonalLoop=1;jettySize=auto;html=1;" edge="1" parent="1" source="4uhuHD_OqtdL1rbwjFQc-37">
          <mxGeometry x="-0.2" y="6" relative="1" as="geometry">
            <mxPoint x="70" y="1044" as="targetPoint" />
            <mxPoint as="offset" />
          </mxGeometry>
        </mxCell>
        <mxCell id="4uhuHD_OqtdL1rbwjFQc-37" value="물품 pick and place" style="rounded=1;whiteSpace=wrap;html=1;" parent="1" vertex="1">
          <mxGeometry x="237" y="1029" width="123" height="30" as="geometry" />
        </mxCell>
        <mxCell id="ZfewzwySDCzYrbojLsdr-20" value="" style="edgeStyle=orthogonalEdgeStyle;rounded=0;orthogonalLoop=1;jettySize=auto;html=1;" parent="1" source="ZfewzwySDCzYrbojLsdr-17" target="ZfewzwySDCzYrbojLsdr-19" edge="1">
          <mxGeometry relative="1" as="geometry" />
        </mxCell>
        <mxCell id="ZfewzwySDCzYrbojLsdr-17" value="서랍 text 인식 자세&lt;div&gt;move_check_text()&lt;/div&gt;" style="rounded=1;whiteSpace=wrap;html=1;" parent="1" vertex="1">
          <mxGeometry x="300" y="224" width="130" height="46" as="geometry" />
        </mxCell>
        <mxCell id="ZfewzwySDCzYrbojLsdr-32" value="" style="edgeStyle=orthogonalEdgeStyle;rounded=0;orthogonalLoop=1;jettySize=auto;html=1;" parent="1" source="ZfewzwySDCzYrbojLsdr-19" target="4uhuHD_OqtdL1rbwjFQc-6" edge="1">
          <mxGeometry relative="1" as="geometry" />
        </mxCell>
        <mxCell id="ZfewzwySDCzYrbojLsdr-19" value="/text_loc 위치의&lt;br&gt;&lt;span style=&quot;background-color: transparent; color: light-dark(rgb(0, 0, 0), rgb(255, 255, 255));&quot;&gt;서랍 열기 (4개 중 하나)&lt;/span&gt;&lt;div&gt;&lt;span style=&quot;background-color: transparent; color: light-dark(rgb(0, 0, 0), rgb(255, 255, 255));&quot;&gt;&lt;font style=&quot;font-size: 10px;&quot;&gt;select_and_open_drawer()&lt;/font&gt;&lt;/span&gt;&lt;/div&gt;" style="rounded=1;whiteSpace=wrap;html=1;" parent="1" vertex="1">
          <mxGeometry x="300" y="309" width="130" height="59" as="geometry" />
        </mxCell>
        <mxCell id="ZfewzwySDCzYrbojLsdr-21" value="/robot_state&lt;div&gt;topic&lt;/div&gt;&lt;div&gt;&#39;check_text&#39;&lt;/div&gt;" style="edgeStyle=orthogonalEdgeStyle;rounded=0;orthogonalLoop=1;jettySize=auto;html=1;" parent="1" edge="1">
          <mxGeometry x="-0.3333" relative="1" as="geometry">
            <mxPoint x="180" y="246.76999999999998" as="targetPoint" />
            <mxPoint x="300" y="246.80225806451608" as="sourcePoint" />
            <mxPoint as="offset" />
          </mxGeometry>
        </mxCell>
        <mxCell id="ZfewzwySDCzYrbojLsdr-30" style="edgeStyle=orthogonalEdgeStyle;rounded=0;orthogonalLoop=1;jettySize=auto;html=1;entryX=0.5;entryY=0;entryDx=0;entryDy=0;" parent="1" source="ZfewzwySDCzYrbojLsdr-25" target="ZfewzwySDCzYrbojLsdr-28" edge="1">
          <mxGeometry relative="1" as="geometry" />
        </mxCell>
        <mxCell id="ZfewzwySDCzYrbojLsdr-47" value="&lt;span style=&quot;forced-color-adjust: none; color: light-dark(rgb(0, 0, 0), rgb(237, 237, 237)); font-family: Helvetica; font-size: 11px; font-style: normal; font-variant-ligatures: normal; font-variant-caps: normal; font-weight: 400; letter-spacing: normal; orphans: 2; text-align: center; text-indent: 0px; text-transform: none; widows: 2; word-spacing: 0px; -webkit-text-stroke-width: 0px; white-space: nowrap; background-color: light-dark(rgb(255, 255, 255), rgb(18, 18, 18)); text-decoration-thickness: initial; text-decoration-style: initial; text-decoration-color: initial; float: none; display: inline !important;&quot; data-mx-given-colors=&quot;{&amp;quot;color&amp;quot;:&amp;quot;rgb(0, 0, 0)&amp;quot;,&amp;quot;background-color&amp;quot;:&amp;quot;rgb(255, 255, 255)&amp;quot;}&quot;&gt;/text_loc&lt;/span&gt;&lt;div style=&quot;forced-color-adjust: none; color: light-dark(rgb(0, 0, 0), rgb(237, 237, 237)); font-family: Helvetica; font-size: 11px; font-style: normal; font-variant-ligatures: normal; font-variant-caps: normal; font-weight: 400; letter-spacing: normal; orphans: 2; text-align: center; text-indent: 0px; text-transform: none; widows: 2; word-spacing: 0px; -webkit-text-stroke-width: 0px; white-space: nowrap; text-decoration-thickness: initial; text-decoration-style: initial; text-decoration-color: initial;&quot; data-mx-given-colors=&quot;{&amp;quot;color&amp;quot;:&amp;quot;rgb(0, 0, 0)&amp;quot;}&quot;&gt;topic&lt;/div&gt;" style="edgeStyle=orthogonalEdgeStyle;rounded=0;orthogonalLoop=1;jettySize=auto;html=1;" parent="1" source="ZfewzwySDCzYrbojLsdr-25" edge="1">
          <mxGeometry x="-0.2883" y="1" relative="1" as="geometry">
            <mxPoint x="360" y="289.5" as="targetPoint" />
            <mxPoint as="offset" />
          </mxGeometry>
        </mxCell>
        <mxCell id="ZfewzwySDCzYrbojLsdr-25" value="서랍 text 인식&lt;div&gt;(1, 2, 3, 4번)&lt;/div&gt;" style="rounded=1;whiteSpace=wrap;html=1;" parent="1" vertex="1">
          <mxGeometry x="130" y="270" width="90" height="39" as="geometry" />
        </mxCell>
        <mxCell id="ZfewzwySDCzYrbojLsdr-48" value="&lt;span style=&quot;color: rgb(0, 0, 0); font-family: Helvetica; font-size: 11px; font-style: normal; font-variant-ligatures: normal; font-variant-caps: normal; font-weight: 400; letter-spacing: normal; orphans: 2; text-align: center; text-indent: 0px; text-transform: none; widows: 2; word-spacing: 0px; -webkit-text-stroke-width: 0px; white-space: nowrap; background-color: rgb(255, 255, 255); text-decoration-thickness: initial; text-decoration-style: initial; text-decoration-color: initial; float: none; display: inline !important;&quot;&gt;/pill_loc&lt;/span&gt;&lt;div style=&quot;forced-color-adjust: none; color: rgb(0, 0, 0); font-family: Helvetica; font-size: 11px; font-style: normal; font-variant-ligatures: normal; font-variant-caps: normal; font-weight: 400; letter-spacing: normal; orphans: 2; text-align: center; text-indent: 0px; text-transform: none; widows: 2; word-spacing: 0px; -webkit-text-stroke-width: 0px; white-space: nowrap; text-decoration-thickness: initial; text-decoration-style: initial; text-decoration-color: initial;&quot;&gt;topic&lt;/div&gt;&lt;div style=&quot;forced-color-adjust: none; color: rgb(0, 0, 0); font-family: Helvetica; font-size: 11px; font-style: normal; font-variant-ligatures: normal; font-variant-caps: normal; font-weight: 400; letter-spacing: normal; orphans: 2; text-align: center; text-indent: 0px; text-transform: none; widows: 2; word-spacing: 0px; -webkit-text-stroke-width: 0px; white-space: nowrap; text-decoration-thickness: initial; text-decoration-style: initial; text-decoration-color: initial;&quot;&gt;(x, y, theta)&lt;/div&gt;" style="edgeStyle=orthogonalEdgeStyle;rounded=0;orthogonalLoop=1;jettySize=auto;html=1;" parent="1" source="ZfewzwySDCzYrbojLsdr-28" edge="1">
          <mxGeometry relative="1" as="geometry">
            <mxPoint x="360" y="474" as="targetPoint" />
          </mxGeometry>
        </mxCell>
        <mxCell id="ZfewzwySDCzYrbojLsdr-28" value="&lt;span style=&quot;font-size: 11px; text-wrap-mode: nowrap; background-color: rgb(255, 255, 255);&quot;&gt;/qr_info 정보를&lt;br&gt;가지고&amp;nbsp;&lt;/span&gt;&lt;span style=&quot;font-size: 11px; background-color: transparent; color: light-dark(rgb(0, 0, 0), rgb(255, 255, 255));&quot;&gt;약 인식,&lt;/span&gt;&lt;div&gt;&lt;div&gt;&lt;font style=&quot;font-size: 11px;&quot;&gt;좌표, 자세 계산&lt;/font&gt;&lt;/div&gt;&lt;/div&gt;&lt;div&gt;&lt;font style=&quot;font-size: 11px;&quot;&gt;detect_pill_yolo()&lt;/font&gt;&lt;/div&gt;" style="rounded=1;whiteSpace=wrap;html=1;" parent="1" vertex="1">
          <mxGeometry x="130" y="439" width="90" height="70" as="geometry" />
        </mxCell>
        <mxCell id="ZfewzwySDCzYrbojLsdr-42" value="종료" style="rounded=1;whiteSpace=wrap;html=1;fillColor=#e1d5e7;strokeColor=#9673a6;arcSize=23;" parent="1" vertex="1">
          <mxGeometry x="130" y="730" width="670" height="30" as="geometry" />
        </mxCell>
        <mxCell id="ZfewzwySDCzYrbojLsdr-56" value="&lt;font style=&quot;font-size: 8px;&quot;&gt;/qr_info&lt;/font&gt;&lt;div&gt;&lt;font style=&quot;font-size: 8px;&quot;&gt;&lt;font style=&quot;&quot;&gt;[&#39;cold&#39;, &#39;amoxicle_tab&lt;span style=&quot;background-color: transparent; color: light-dark(rgb(0, 0, 0), rgb(255, 255, 255));&quot;&gt;&amp;nbsp;2&#39;&lt;/span&gt;&lt;/font&gt;&lt;span style=&quot;background-color: transparent; color: light-dark(rgb(0, 0, 0), rgb(255, 255, 255));&quot;&gt;]&lt;/span&gt;&lt;/font&gt;&lt;/div&gt;" style="rounded=1;whiteSpace=wrap;html=1;" parent="1" vertex="1">
          <mxGeometry x="20" y="187.5" width="90" height="31.5" as="geometry" />
        </mxCell>
        <mxCell id="ZfewzwySDCzYrbojLsdr-57" value="&lt;font style=&quot;font-size: 8px;&quot;&gt;qr_info[0] = cold 이므로&lt;/font&gt;&lt;div&gt;&lt;span style=&quot;text-wrap-mode: nowrap; background-color: rgb(255, 255, 255);&quot;&gt;&lt;font style=&quot;font-size: 8px;&quot;&gt;text_loc = 3&lt;/font&gt;&lt;/span&gt;&lt;/div&gt;" style="rounded=1;whiteSpace=wrap;html=1;" parent="1" vertex="1">
          <mxGeometry x="20" y="270" width="90" height="39" as="geometry" />
        </mxCell>
        <mxCell id="ZfewzwySDCzYrbojLsdr-58" value="&lt;font&gt;예시&lt;/font&gt;" style="rounded=1;whiteSpace=wrap;html=1;" parent="1" vertex="1">
          <mxGeometry x="20" y="139" width="90" height="30" as="geometry" />
        </mxCell>
        <mxCell id="ZfewzwySDCzYrbojLsdr-59" value="&lt;font style=&quot;font-size: 8px;&quot;&gt;- amoxicle_tab 탐지&lt;/font&gt;&lt;div&gt;&lt;font style=&quot;font-size: 8px;&quot;&gt;- ROI 영역 내 알약 선정&lt;/font&gt;&lt;/div&gt;&lt;div&gt;&lt;span style=&quot;font-size: 8px;&quot;&gt;- segmentation 활용&lt;br&gt;위치, 각도 계산&lt;/span&gt;&lt;/div&gt;&lt;div&gt;&lt;font style=&quot;font-size: 8px;&quot;&gt;- pill_loc = x, y, theta&lt;/font&gt;&lt;/div&gt;" style="rounded=1;whiteSpace=wrap;html=1;" parent="1" vertex="1">
          <mxGeometry x="20" y="419" width="90" height="110" as="geometry" />
        </mxCell>
        <mxCell id="VaNRtjLqdTXlUVfQ7H0l-8" style="edgeStyle=orthogonalEdgeStyle;rounded=0;orthogonalLoop=1;jettySize=auto;html=1;entryX=0.5;entryY=0;entryDx=0;entryDy=0;" parent="1" source="VaNRtjLqdTXlUVfQ7H0l-1" target="VaNRtjLqdTXlUVfQ7H0l-5" edge="1">
          <mxGeometry relative="1" as="geometry" />
        </mxCell>
        <mxCell id="VaNRtjLqdTXlUVfQ7H0l-1" value="Voice" style="rounded=1;whiteSpace=wrap;html=1;fillColor=#e1d5e7;strokeColor=#9673a6;" parent="1" vertex="1">
          <mxGeometry x="490" y="64" width="130" height="30" as="geometry" />
        </mxCell>
        <mxCell id="4Y7MrG0Yg-tEDEvkfqsa-43" style="edgeStyle=orthogonalEdgeStyle;rounded=0;orthogonalLoop=1;jettySize=auto;html=1;entryX=0.5;entryY=0;entryDx=0;entryDy=0;" edge="1" parent="1" source="VaNRtjLqdTXlUVfQ7H0l-5" target="4Y7MrG0Yg-tEDEvkfqsa-42">
          <mxGeometry relative="1" as="geometry" />
        </mxCell>
        <mxCell id="VaNRtjLqdTXlUVfQ7H0l-5" value="&lt;font style=&quot;font-size: 11px;&quot;&gt;처방전 QR 안내 음성 출력&lt;br&gt;or 의약품 약 요청&lt;/font&gt;" style="rounded=1;whiteSpace=wrap;html=1;" parent="1" vertex="1">
          <mxGeometry x="490" y="198" width="130" height="40" as="geometry" />
        </mxCell>
        <mxCell id="4Y7MrG0Yg-tEDEvkfqsa-9" value="" style="edgeStyle=orthogonalEdgeStyle;rounded=0;orthogonalLoop=1;jettySize=auto;html=1;" edge="1" parent="1" source="VaNRtjLqdTXlUVfQ7H0l-7" target="4Y7MrG0Yg-tEDEvkfqsa-5">
          <mxGeometry relative="1" as="geometry" />
        </mxCell>
        <mxCell id="VaNRtjLqdTXlUVfQ7H0l-7" value="Ultrasonic" style="rounded=1;whiteSpace=wrap;html=1;fillColor=#e1d5e7;strokeColor=#9673a6;" parent="1" vertex="1">
          <mxGeometry x="670" y="64" width="130" height="30" as="geometry" />
        </mxCell>
        <mxCell id="4Y7MrG0Yg-tEDEvkfqsa-44" style="edgeStyle=orthogonalEdgeStyle;rounded=0;orthogonalLoop=1;jettySize=auto;html=1;" edge="1" parent="1">
          <mxGeometry relative="1" as="geometry">
            <mxPoint x="550" y="653" as="targetPoint" />
            <mxPoint x="430" y="653" as="sourcePoint" />
          </mxGeometry>
        </mxCell>
        <mxCell id="4Y7MrG0Yg-tEDEvkfqsa-45" value="/task_state&lt;div&gt;Topic&lt;/div&gt;" style="edgeLabel;html=1;align=center;verticalAlign=middle;resizable=0;points=[];" vertex="1" connectable="0" parent="4Y7MrG0Yg-tEDEvkfqsa-44">
          <mxGeometry x="-0.1557" y="-3" relative="1" as="geometry">
            <mxPoint as="offset" />
          </mxGeometry>
        </mxCell>
        <mxCell id="VaNRtjLqdTXlUVfQ7H0l-11" value="약 종이 봉투에 담기&lt;div&gt;put_pill_in_bag()&lt;/div&gt;" style="rounded=1;whiteSpace=wrap;html=1;" parent="1" vertex="1">
          <mxGeometry x="300" y="640" width="130" height="42" as="geometry" />
        </mxCell>
        <mxCell id="NTEcIHUlj5o2l75i7hv5-2" value="종료" style="rounded=1;whiteSpace=wrap;html=1;fillColor=#e1d5e7;strokeColor=#9673a6;" parent="1" vertex="1">
          <mxGeometry x="18.5" y="1120" width="781.5" height="30" as="geometry" />
        </mxCell>
        <mxCell id="NTEcIHUlj5o2l75i7hv5-6" value="물품 설명" style="rounded=1;whiteSpace=wrap;html=1;" parent="1" vertex="1">
          <mxGeometry x="465" y="1070" width="110" height="30" as="geometry" />
        </mxCell>
        <mxCell id="4Y7MrG0Yg-tEDEvkfqsa-6" style="edgeStyle=orthogonalEdgeStyle;rounded=0;orthogonalLoop=1;jettySize=auto;html=1;" edge="1" parent="1">
          <mxGeometry relative="1" as="geometry">
            <mxPoint x="370" y="122" as="targetPoint" />
            <mxPoint x="670" y="122" as="sourcePoint" />
          </mxGeometry>
        </mxCell>
        <mxCell id="4Y7MrG0Yg-tEDEvkfqsa-7" value="/task_state&lt;div&gt;Topic&lt;/div&gt;" style="edgeLabel;html=1;align=center;verticalAlign=middle;resizable=0;points=[];" vertex="1" connectable="0" parent="4Y7MrG0Yg-tEDEvkfqsa-6">
          <mxGeometry x="0.0183" y="-1" relative="1" as="geometry">
            <mxPoint x="93" as="offset" />
          </mxGeometry>
        </mxCell>
        <mxCell id="4Y7MrG0Yg-tEDEvkfqsa-5" value="&lt;span style=&quot;font-size: 11px;&quot;&gt;사람 감지 인식&lt;/span&gt;" style="rounded=1;whiteSpace=wrap;html=1;" vertex="1" parent="1">
          <mxGeometry x="670" y="108" width="130" height="36" as="geometry" />
        </mxCell>
        <mxCell id="4Y7MrG0Yg-tEDEvkfqsa-11" style="edgeStyle=orthogonalEdgeStyle;rounded=0;orthogonalLoop=1;jettySize=auto;html=1;entryX=0.351;entryY=0;entryDx=0;entryDy=0;entryPerimeter=0;" edge="1" parent="1" source="VaNRtjLqdTXlUVfQ7H0l-11" target="ZfewzwySDCzYrbojLsdr-42">
          <mxGeometry relative="1" as="geometry" />
        </mxCell>
        <mxCell id="4Y7MrG0Yg-tEDEvkfqsa-12" style="edgeStyle=orthogonalEdgeStyle;rounded=0;orthogonalLoop=1;jettySize=auto;html=1;entryX=0.066;entryY=-0.024;entryDx=0;entryDy=0;entryPerimeter=0;" edge="1" parent="1" source="ZfewzwySDCzYrbojLsdr-28" target="ZfewzwySDCzYrbojLsdr-42">
          <mxGeometry relative="1" as="geometry" />
        </mxCell>
        <mxCell id="4Y7MrG0Yg-tEDEvkfqsa-13" value="Ultrasonic" style="rounded=1;whiteSpace=wrap;html=1;fillColor=#e1d5e7;strokeColor=#9673a6;" vertex="1" parent="1">
          <mxGeometry x="670" y="810" width="130" height="30" as="geometry" />
        </mxCell>
        <mxCell id="4Y7MrG0Yg-tEDEvkfqsa-22" value="&lt;span style=&quot;color: rgb(0, 0, 0); font-family: Helvetica; font-size: 11px; font-style: normal; font-variant-ligatures: normal; font-variant-caps: normal; font-weight: 400; letter-spacing: normal; orphans: 2; text-align: center; text-indent: 0px; text-transform: none; widows: 2; word-spacing: 0px; -webkit-text-stroke-width: 0px; white-space: nowrap; background-color: rgb(255, 255, 255); text-decoration-thickness: initial; text-decoration-style: initial; text-decoration-color: initial; display: inline !important; float: none;&quot;&gt;/tesk_state&lt;/span&gt;&lt;div style=&quot;forced-color-adjust: none; color: rgb(0, 0, 0); font-family: Helvetica; font-size: 11px; font-style: normal; font-variant-ligatures: normal; font-variant-caps: normal; font-weight: 400; letter-spacing: normal; orphans: 2; text-align: center; text-indent: 0px; text-transform: none; widows: 2; word-spacing: 0px; -webkit-text-stroke-width: 0px; white-space: nowrap; text-decoration-thickness: initial; text-decoration-style: initial; text-decoration-color: initial;&quot;&gt;Topic&lt;/div&gt;" style="edgeStyle=orthogonalEdgeStyle;rounded=0;orthogonalLoop=1;jettySize=auto;html=1;" edge="1" parent="1" source="4Y7MrG0Yg-tEDEvkfqsa-16">
          <mxGeometry x="-0.7229" relative="1" as="geometry">
            <mxPoint x="300" y="865" as="targetPoint" />
            <mxPoint as="offset" />
          </mxGeometry>
        </mxCell>
        <mxCell id="4Y7MrG0Yg-tEDEvkfqsa-16" value="&lt;span style=&quot;font-size: 11px;&quot;&gt;사람 감지 인식&lt;/span&gt;" style="rounded=1;whiteSpace=wrap;html=1;" vertex="1" parent="1">
          <mxGeometry x="670" y="850" width="130" height="30" as="geometry" />
        </mxCell>
        <mxCell id="4Y7MrG0Yg-tEDEvkfqsa-17" value="처방전 QR 인식 자세&lt;div&gt;move_check_qr()&lt;/div&gt;" style="rounded=1;whiteSpace=wrap;html=1;" vertex="1" parent="1">
          <mxGeometry x="237" y="890" width="126" height="48" as="geometry" />
        </mxCell>
        <mxCell id="4Y7MrG0Yg-tEDEvkfqsa-21" style="edgeStyle=orthogonalEdgeStyle;rounded=0;orthogonalLoop=1;jettySize=auto;html=1;entryX=0.503;entryY=-0.049;entryDx=0;entryDy=0;entryPerimeter=0;" edge="1" parent="1" source="4uhuHD_OqtdL1rbwjFQc-23" target="4Y7MrG0Yg-tEDEvkfqsa-17">
          <mxGeometry relative="1" as="geometry" />
        </mxCell>
        <mxCell id="4Y7MrG0Yg-tEDEvkfqsa-25" style="edgeStyle=orthogonalEdgeStyle;rounded=0;orthogonalLoop=1;jettySize=auto;html=1;entryX=0.512;entryY=0;entryDx=0;entryDy=0;entryPerimeter=0;" edge="1" parent="1" source="4Y7MrG0Yg-tEDEvkfqsa-17" target="4uhuHD_OqtdL1rbwjFQc-29">
          <mxGeometry relative="1" as="geometry" />
        </mxCell>
        <mxCell id="4Y7MrG0Yg-tEDEvkfqsa-41" style="edgeStyle=orthogonalEdgeStyle;rounded=0;orthogonalLoop=1;jettySize=auto;html=1;entryX=0.642;entryY=0;entryDx=0;entryDy=0;entryPerimeter=0;" edge="1" parent="1" source="NTEcIHUlj5o2l75i7hv5-6" target="NTEcIHUlj5o2l75i7hv5-2">
          <mxGeometry relative="1" as="geometry" />
        </mxCell>
        <mxCell id="4Y7MrG0Yg-tEDEvkfqsa-42" value="&lt;span style=&quot;font-size: 11px;&quot;&gt;처방한 약 설명&lt;/span&gt;" style="rounded=1;whiteSpace=wrap;html=1;" vertex="1" parent="1">
          <mxGeometry x="490" y="680" width="130" height="30" as="geometry" />
        </mxCell>
        <mxCell id="4Y7MrG0Yg-tEDEvkfqsa-47" style="edgeStyle=orthogonalEdgeStyle;rounded=0;orthogonalLoop=1;jettySize=auto;html=1;entryX=0.634;entryY=0;entryDx=0;entryDy=0;entryPerimeter=0;" edge="1" parent="1" source="4Y7MrG0Yg-tEDEvkfqsa-42" target="ZfewzwySDCzYrbojLsdr-42">
          <mxGeometry relative="1" as="geometry" />
        </mxCell>
        <mxCell id="4Y7MrG0Yg-tEDEvkfqsa-54" style="edgeStyle=orthogonalEdgeStyle;rounded=0;orthogonalLoop=1;jettySize=auto;html=1;entryX=0.066;entryY=0;entryDx=0;entryDy=0;entryPerimeter=0;" edge="1" parent="1" source="4uhuHD_OqtdL1rbwjFQc-32" target="NTEcIHUlj5o2l75i7hv5-2">
          <mxGeometry relative="1" as="geometry" />
        </mxCell>
      </root>
    </mxGraphModel>
  </diagram>
</mxfile>
